<svg width="362" height="229" viewBox="0 0 362 229" fill="none" xmlns="http://www.w3.org/2000/svg">
<g clip-path="url(#clip0_17_11)">
<path d="M177.88 115.101L225.206 18.0688C210.201 10.7502 194.575 7.14258 177.88 7.14258V115.101Z" fill="#555C4A" stroke="#CEC6BB" stroke-width="1.3" stroke-miterlimit="10"/>
<path d="M177.88 115.101L273.202 64.4181C262.005 43.3603 246.642 28.5241 225.206 18.0693L177.88 115.101Z" fill="#C2795C" stroke="#CEC6BB" stroke-width="1.3" stroke-miterlimit="10"/>
<path d="M177.88 115.101L255.539 190.095C288.674 155.783 295.595 106.534 273.202 64.418L177.88 115.101Z" fill="#B3A48F" stroke="#CEC6BB" stroke-width="1.3" stroke-miterlimit="10"/>
<path d="M176.585 115.101V223.059C208.107 223.059 233.642 212.398 255.539 190.095L176.585 115.101Z" fill="#9F8D8D" stroke="#CEC6BB" stroke-width="1.3" stroke-miterlimit="10"/>
<path d="M177.88 115.101V7.14331C118.257 7.14331 69.9221 55.4778 69.9221 115.101C69.9221 174.725 118.257 223.06 177.88 223.06V115.101Z" fill="#3B7A8C" stroke="#CEC6BB" stroke-width="1.3" stroke-miterlimit="10"/>
<path d="M78.583 121.809L79.3397 120.923C82.6701 123.95 84.0942 118.002 79.7882 119.688L79.0514 119.2L79.2501 115.785H83.4219V116.871H80.3052L80.1957 118.503C86.6026 117.217 83.2413 126.015 78.583 121.809Z" fill="black"/>
<path d="M85.5042 119.29C85.291 114.616 91.761 114.545 91.5774 119.251C91.7915 123.926 85.313 123.995 85.5042 119.29ZM90.3126 119.29C90.4503 116.063 86.6493 115.974 86.7685 119.251C86.6228 122.487 90.438 122.552 90.3126 119.29Z" fill="black"/>
<path d="M93.2423 117.508C93.1222 115.196 96.6204 115.153 96.5272 117.468C96.6526 119.77 93.1566 119.828 93.2423 117.508ZM99.0462 115.786H100.032C98.746 117.507 96.1732 121.016 94.934 122.755H93.9486C95.2337 121.032 97.8048 117.525 99.0462 115.786ZM94.1283 117.468C94.0652 118.79 95.6951 118.825 95.6416 117.508C95.703 116.193 94.0749 116.147 94.1283 117.468ZM97.4534 121.072C97.3342 118.762 100.824 118.717 100.739 121.033C100.857 123.335 97.3686 123.391 97.4534 121.072ZM99.8532 121.072C99.915 119.758 98.2864 119.711 98.3399 121.032C98.2767 122.354 99.9066 122.389 99.8532 121.072Z" fill="black"/>
<path d="M206.422 195.295L205.167 195.643L204.909 194.648C205.476 194.46 207.041 193.902 207.637 194.051V201.07H206.422V195.295H206.422Z" fill="black"/>
<path d="M209.638 199.964L210.494 199.168C212.746 201.931 215.574 197.696 211.361 197.933L211.161 197.167L213.043 195.165H210.026V194.1H214.636V195.016L212.695 197.008C217.723 198.277 212.667 203.635 209.638 199.964Z" fill="black"/>
<path d="M216.461 195.822C216.34 193.511 219.839 193.468 219.745 195.782C219.871 198.084 216.375 198.143 216.461 195.822ZM222.264 194.1H223.25C221.964 195.822 219.391 199.33 218.152 201.069H217.167C218.452 199.346 221.023 195.839 222.264 194.1ZM217.346 195.782C217.283 197.104 218.913 197.139 218.859 195.822C218.921 194.508 217.293 194.462 217.346 195.782ZM220.672 199.387C220.552 197.077 224.042 197.031 223.957 199.347C224.075 201.65 220.587 201.706 220.672 199.387ZM223.071 199.387C223.133 198.072 221.504 198.026 221.558 199.347C221.495 200.669 223.125 200.704 223.071 199.387Z" fill="black"/>
<path d="M257.192 123.866C258.029 122.999 261.036 121.099 260.896 119.943C260.76 118.355 258.882 118.658 258.168 119.903L257.292 119.216C259.872 115.577 265.831 119.305 258.915 123.756H262.23V124.831H257.192V123.866Z" fill="black"/>
<path d="M263.994 121.367C263.78 116.693 270.25 116.621 270.067 121.327C270.281 126.003 263.803 126.072 263.994 121.367ZM268.803 121.367C268.941 118.139 265.14 118.05 265.258 121.327C265.113 124.564 268.928 124.629 268.803 121.367Z" fill="black"/>
<path d="M271.731 119.585C271.611 117.273 275.11 117.23 275.017 119.545C275.142 121.847 271.646 121.905 271.731 119.585ZM277.536 117.862H278.521C277.236 119.584 274.663 123.093 273.424 124.832H272.439C273.723 123.109 276.295 119.601 277.536 117.862ZM272.618 119.545C272.555 120.867 274.185 120.902 274.131 119.585C274.193 118.27 272.564 118.224 272.618 119.545ZM275.943 123.149C275.824 120.839 279.313 120.794 279.228 123.11C279.346 125.412 275.858 125.468 275.943 123.149ZM278.343 123.149C278.404 121.834 276.776 121.788 276.829 123.109C276.767 124.431 278.396 124.466 278.343 123.149Z" fill="black"/>
<path d="M232.259 49.8723L231.005 50.2211L230.746 49.2256C231.313 49.038 232.878 48.48 233.474 48.6283V55.6471H232.26L232.259 49.8723Z" fill="black"/>
<path d="M235.616 52.1822C235.403 47.5084 241.872 47.4364 241.689 52.1424C241.903 56.818 235.425 56.8869 235.616 52.1822ZM240.425 52.1822C240.562 48.9542 236.761 48.8655 236.881 52.1424C236.735 55.3793 240.55 55.4446 240.425 52.1822Z" fill="black"/>
<path d="M243.354 50.3998C243.234 48.0883 246.732 48.0455 246.639 50.3601C246.764 52.6619 243.268 52.7206 243.354 50.3998ZM249.158 48.6777H250.143C248.857 50.3994 246.284 53.9081 245.045 55.647H244.06C245.345 53.924 247.916 50.4166 249.158 48.6777ZM244.239 50.3601C244.176 51.6818 245.806 51.7171 245.753 50.3998C245.814 49.0856 244.186 49.0392 244.239 50.3601ZM247.565 53.9642C247.446 51.6544 250.935 51.609 250.85 53.9249C250.968 56.2276 247.48 56.2832 247.565 53.9642ZM249.964 53.9642C250.026 52.6499 248.397 52.6032 248.451 53.9245C248.388 55.2462 250.017 55.2815 249.964 53.9642Z" fill="black"/>
<path d="M196.333 26.4109H192.829V25.3354H197.728C198.266 25.8811 194.787 31.7402 194.591 32.3048H193.207L196.333 26.4109Z" fill="black"/>
<path d="M199.312 27.058C199.192 24.7465 202.691 24.7037 202.597 27.0183C202.723 29.3201 199.226 29.3788 199.312 27.058ZM205.116 25.3359H206.102C204.816 27.0571 202.243 30.5659 201.004 32.3052H200.018C201.304 30.5822 203.875 27.0743 205.116 25.3359ZM200.198 27.0183C200.135 28.34 201.765 28.3753 201.711 27.058C201.773 25.7438 200.145 25.6974 200.198 27.0183ZM203.524 30.6224C203.404 28.3122 206.894 28.2676 206.809 30.5831C206.926 32.8853 203.439 32.9418 203.524 30.6224ZM205.923 30.6224C205.984 29.3082 204.356 29.2614 204.409 30.5827C204.347 31.9044 205.976 31.9393 205.923 30.6224Z" fill="black"/>
<path d="M178.132 185.004C217.376 185.004 249.189 153.19 249.189 113.946C249.189 74.7024 217.376 42.8889 178.132 42.8889C138.888 42.8889 107.074 74.7024 107.074 113.946C107.074 153.19 138.888 185.004 178.132 185.004Z" fill="#E1E1E1"/>
<path d="M8.15057 125V116.818H9.36506V118.097H9.47159C9.64205 117.66 9.91726 117.321 10.2972 117.079C10.6772 116.834 11.1335 116.712 11.6662 116.712C12.206 116.712 12.6552 116.834 13.0138 117.079C13.3761 117.321 13.6584 117.66 13.8608 118.097H13.946C14.1555 117.674 14.4698 117.339 14.8888 117.09C15.3079 116.838 15.8104 116.712 16.3963 116.712C17.1278 116.712 17.7262 116.941 18.1914 117.399C18.6566 117.854 18.8892 118.562 18.8892 119.524V125H17.6321V119.524C17.6321 118.921 17.467 118.489 17.1367 118.23C16.8065 117.971 16.4176 117.841 15.9702 117.841C15.3949 117.841 14.9492 118.015 14.6332 118.363C14.3171 118.708 14.1591 119.144 14.1591 119.674V125H12.8807V119.397C12.8807 118.931 12.7298 118.557 12.4279 118.273C12.1261 117.985 11.7372 117.841 11.2614 117.841C10.9347 117.841 10.6293 117.928 10.3452 118.102C10.0646 118.276 9.83736 118.518 9.66335 118.827C9.4929 119.132 9.40767 119.485 9.40767 119.887V125H8.15057ZM21.7044 128.068C21.4913 128.068 21.3013 128.051 21.1344 128.015C20.9675 127.983 20.8521 127.951 20.7882 127.919L21.1078 126.811C21.4132 126.889 21.6831 126.918 21.9174 126.897C22.1518 126.875 22.3596 126.77 22.5407 126.582C22.7253 126.398 22.894 126.098 23.0467 125.682L23.2811 125.043L20.2555 116.818H21.6191L23.8777 123.338H23.9629L26.2214 116.818H27.5851L24.112 126.193C23.9558 126.616 23.7623 126.966 23.5314 127.243C23.3006 127.523 23.0325 127.731 22.7271 127.866C22.4252 128.001 22.0843 128.068 21.7044 128.068ZM35.0398 118.651L33.9105 118.97C33.8395 118.782 33.7347 118.599 33.5962 118.422C33.4613 118.241 33.2766 118.092 33.0423 117.974C32.8079 117.857 32.5078 117.799 32.142 117.799C31.6413 117.799 31.2241 117.914 30.8903 118.145C30.56 118.372 30.3949 118.661 30.3949 119.013C30.3949 119.326 30.5085 119.572 30.7358 119.753C30.9631 119.935 31.3182 120.085 31.8011 120.206L33.0156 120.505C33.7472 120.682 34.2923 120.954 34.6509 121.319C35.0096 121.682 35.1889 122.149 35.1889 122.72C35.1889 123.189 35.054 123.608 34.7841 123.978C34.5178 124.347 34.1449 124.638 33.6655 124.851C33.1861 125.064 32.6286 125.171 31.9929 125.171C31.1584 125.171 30.4677 124.99 29.9208 124.627C29.3739 124.265 29.0277 123.736 28.8821 123.04L30.0753 122.742C30.1889 123.182 30.4038 123.512 30.7198 123.732C31.0394 123.953 31.4567 124.063 31.9716 124.063C32.5575 124.063 33.0227 123.938 33.3672 123.69C33.7152 123.438 33.8892 123.136 33.8892 122.784C33.8892 122.5 33.7898 122.262 33.5909 122.071C33.392 121.875 33.0866 121.73 32.6747 121.634L31.3111 121.314C30.5618 121.137 30.0114 120.861 29.6598 120.489C29.3118 120.112 29.1378 119.642 29.1378 119.077C29.1378 118.615 29.2674 118.207 29.5266 117.852C29.7894 117.497 30.1463 117.218 30.5973 117.016C31.0518 116.813 31.5668 116.712 32.142 116.712C32.9517 116.712 33.5874 116.889 34.049 117.245C34.5142 117.6 34.8445 118.068 35.0398 118.651ZM40.6395 116.818V117.884H36.3994V116.818H40.6395ZM37.6352 114.858H38.8923V122.656C38.8923 123.012 38.9438 123.278 39.0468 123.455C39.1533 123.63 39.2883 123.747 39.4516 123.807C39.6185 123.864 39.7943 123.892 39.979 123.892C40.1175 123.892 40.2311 123.885 40.3199 123.871C40.4086 123.853 40.4797 123.839 40.5329 123.828L40.7886 124.958C40.7034 124.99 40.5844 125.022 40.4317 125.054C40.279 125.089 40.0855 125.107 39.8511 125.107C39.496 125.107 39.148 125.03 38.8071 124.878C38.4697 124.725 38.1892 124.492 37.9655 124.18C37.7453 123.867 37.6352 123.473 37.6352 122.997V114.858ZM45.873 125.171C45.0846 125.171 44.4046 124.997 43.8328 124.649C43.2646 124.297 42.8261 123.807 42.5171 123.179C42.2117 122.546 42.059 121.811 42.059 120.973C42.059 120.135 42.2117 119.397 42.5171 118.757C42.8261 118.115 43.2558 117.614 43.8062 117.255C44.3602 116.893 45.0065 116.712 45.7451 116.712C46.1713 116.712 46.5921 116.783 47.0075 116.925C47.423 117.067 47.8012 117.298 48.1421 117.617C48.483 117.933 48.7547 118.353 48.9571 118.875C49.1595 119.397 49.2607 120.039 49.2607 120.803V121.335H42.9539V120.249H47.9823C47.9823 119.787 47.89 119.375 47.7053 119.013C47.5242 118.651 47.265 118.365 46.9276 118.155C46.5938 117.946 46.1997 117.841 45.7451 117.841C45.2444 117.841 44.8112 117.965 44.4454 118.214C44.0832 118.459 43.8044 118.779 43.6091 119.173C43.4138 119.567 43.3161 119.99 43.3161 120.441V121.165C43.3161 121.783 43.4227 122.307 43.6357 122.736C43.8524 123.163 44.1524 123.487 44.536 123.711C44.9195 123.931 45.3651 124.041 45.873 124.041C46.2032 124.041 46.5015 123.995 46.7678 123.903C47.0377 123.807 47.2703 123.665 47.4656 123.477C47.661 123.285 47.8119 123.047 47.9184 122.763L49.1329 123.104C49.0051 123.516 48.7902 123.878 48.4884 124.191C48.1865 124.5 47.8137 124.741 47.3698 124.915C46.9259 125.085 46.4269 125.171 45.873 125.171ZM51.173 125V116.818H52.3875V118.054H52.4727C52.6219 117.649 52.8918 117.321 53.2824 117.069C53.673 116.817 54.1134 116.691 54.6034 116.691C54.6958 116.691 54.8112 116.692 54.9497 116.696C55.0882 116.699 55.1929 116.705 55.2639 116.712V117.99C55.2213 117.98 55.1237 117.964 54.971 117.942C54.8218 117.918 54.6638 117.905 54.4969 117.905C54.0992 117.905 53.7441 117.989 53.4316 118.155C53.1226 118.319 52.8776 118.546 52.6965 118.837C52.5189 119.125 52.4301 119.453 52.4301 119.823V125H51.173ZM57.8128 128.068C57.5997 128.068 57.4097 128.051 57.2428 128.015C57.0759 127.983 56.9605 127.951 56.8966 127.919L57.2162 126.811C57.5216 126.889 57.7915 126.918 58.0258 126.897C58.2602 126.875 58.468 126.77 58.6491 126.582C58.8337 126.398 59.0024 126.098 59.1551 125.682L59.3895 125.043L56.3639 116.818H57.7275L59.9861 123.338H60.0713L62.3298 116.818H63.6934L60.2204 126.193C60.0642 126.616 59.8706 126.966 59.6398 127.243C59.409 127.523 59.1409 127.731 58.8355 127.866C58.5336 128.001 58.1927 128.068 57.8128 128.068Z" fill="black"/>
<path d="M297.474 125.17C296.707 125.17 296.047 124.989 295.493 124.627C294.939 124.265 294.513 123.766 294.214 123.13C293.916 122.495 293.767 121.768 293.767 120.952C293.767 120.121 293.92 119.387 294.225 118.752C294.534 118.113 294.964 117.614 295.514 117.255C296.068 116.893 296.714 116.712 297.453 116.712C298.028 116.712 298.547 116.818 299.009 117.031C299.47 117.244 299.848 117.543 300.143 117.926C300.438 118.31 300.621 118.757 300.692 119.268H299.435C299.339 118.896 299.126 118.565 298.795 118.278C298.469 117.987 298.028 117.841 297.474 117.841C296.984 117.841 296.555 117.969 296.185 118.224C295.82 118.477 295.534 118.833 295.328 119.295C295.125 119.753 295.024 120.291 295.024 120.909C295.024 121.541 295.124 122.092 295.322 122.56C295.525 123.029 295.809 123.393 296.175 123.652C296.544 123.912 296.977 124.041 297.474 124.041C297.801 124.041 298.098 123.984 298.364 123.871C298.63 123.757 298.856 123.594 299.04 123.381C299.225 123.168 299.357 122.912 299.435 122.614H300.692C300.621 123.097 300.445 123.532 300.164 123.919C299.887 124.302 299.52 124.608 299.062 124.835C298.607 125.059 298.078 125.17 297.474 125.17ZM303.787 114.091V125H302.529V114.091H303.787ZM308.497 125.192C307.978 125.192 307.508 125.094 307.085 124.899C306.663 124.7 306.327 124.414 306.078 124.041C305.83 123.665 305.706 123.21 305.706 122.678C305.706 122.209 305.798 121.829 305.983 121.538C306.167 121.243 306.414 121.012 306.723 120.845C307.032 120.678 307.373 120.554 307.746 120.472C308.122 120.387 308.5 120.32 308.88 120.27C309.377 120.206 309.78 120.158 310.089 120.126C310.402 120.091 310.629 120.032 310.771 119.95C310.917 119.869 310.99 119.727 310.99 119.524V119.482C310.99 118.956 310.846 118.548 310.558 118.256C310.274 117.965 309.843 117.82 309.264 117.82C308.664 117.82 308.193 117.951 307.852 118.214C307.511 118.477 307.272 118.757 307.133 119.055L305.94 118.629C306.153 118.132 306.437 117.745 306.792 117.468C307.151 117.187 307.541 116.992 307.964 116.882C308.39 116.768 308.809 116.712 309.221 116.712C309.484 116.712 309.786 116.744 310.127 116.808C310.471 116.868 310.803 116.994 311.123 117.186C311.446 117.377 311.714 117.667 311.927 118.054C312.14 118.441 312.247 118.96 312.247 119.609V125H310.99V123.892H310.926C310.84 124.07 310.698 124.26 310.5 124.462C310.301 124.664 310.036 124.837 309.706 124.979C309.376 125.121 308.973 125.192 308.497 125.192ZM308.688 124.062C309.186 124.062 309.605 123.965 309.946 123.77C310.29 123.574 310.549 123.322 310.723 123.013C310.901 122.704 310.99 122.379 310.99 122.038V120.888C310.936 120.952 310.819 121.01 310.638 121.064C310.46 121.113 310.255 121.158 310.02 121.197C309.789 121.232 309.564 121.264 309.344 121.293C309.127 121.317 308.951 121.339 308.816 121.357C308.49 121.399 308.184 121.468 307.9 121.564C307.62 121.657 307.392 121.797 307.218 121.985C307.048 122.17 306.963 122.422 306.963 122.741C306.963 123.178 307.124 123.509 307.447 123.732C307.774 123.952 308.188 124.062 308.688 124.062ZM320.337 118.651L319.207 118.97C319.136 118.782 319.032 118.599 318.893 118.422C318.758 118.24 318.574 118.091 318.339 117.974C318.105 117.857 317.805 117.798 317.439 117.798C316.938 117.798 316.521 117.914 316.187 118.145C315.857 118.372 315.692 118.661 315.692 119.013C315.692 119.325 315.805 119.572 316.033 119.753C316.26 119.934 316.615 120.085 317.098 120.206L318.312 120.504C319.044 120.682 319.589 120.953 319.948 121.319C320.306 121.681 320.486 122.148 320.486 122.72C320.486 123.189 320.351 123.608 320.081 123.977C319.815 124.347 319.442 124.638 318.962 124.851C318.483 125.064 317.925 125.17 317.29 125.17C316.455 125.17 315.765 124.989 315.218 124.627C314.671 124.265 314.325 123.736 314.179 123.04L315.372 122.741C315.486 123.182 315.701 123.512 316.017 123.732C316.336 123.952 316.754 124.062 317.268 124.062C317.854 124.062 318.32 123.938 318.664 123.69C319.012 123.437 319.186 123.136 319.186 122.784C319.186 122.5 319.087 122.262 318.888 122.07C318.689 121.875 318.384 121.729 317.972 121.634L316.608 121.314C315.859 121.136 315.308 120.861 314.957 120.488C314.609 120.112 314.435 119.641 314.435 119.077C314.435 118.615 314.564 118.207 314.824 117.852C315.086 117.496 315.443 117.218 315.894 117.015C316.349 116.813 316.864 116.712 317.439 116.712C318.249 116.712 318.884 116.889 319.346 117.244C319.811 117.599 320.141 118.068 320.337 118.651ZM328.174 118.651L327.044 118.97C326.973 118.782 326.869 118.599 326.73 118.422C326.595 118.24 326.41 118.091 326.176 117.974C325.942 117.857 325.642 117.798 325.276 117.798C324.775 117.798 324.358 117.914 324.024 118.145C323.694 118.372 323.529 118.661 323.529 119.013C323.529 119.325 323.642 119.572 323.87 119.753C324.097 119.934 324.452 120.085 324.935 120.206L326.149 120.504C326.881 120.682 327.426 120.953 327.785 121.319C328.143 121.681 328.323 122.148 328.323 122.72C328.323 123.189 328.188 123.608 327.918 123.977C327.652 124.347 327.279 124.638 326.799 124.851C326.32 125.064 325.762 125.17 325.127 125.17C324.292 125.17 323.601 124.989 323.055 124.627C322.508 124.265 322.161 123.736 322.016 123.04L323.209 122.741C323.323 123.182 323.538 123.512 323.854 123.732C324.173 123.952 324.59 124.062 325.105 124.062C325.691 124.062 326.157 123.938 326.501 123.69C326.849 123.437 327.023 123.136 327.023 122.784C327.023 122.5 326.924 122.262 326.725 122.07C326.526 121.875 326.22 121.729 325.809 121.634L324.445 121.314C323.696 121.136 323.145 120.861 322.794 120.488C322.446 120.112 322.272 119.641 322.272 119.077C322.272 118.615 322.401 118.207 322.66 117.852C322.923 117.496 323.28 117.218 323.731 117.015C324.186 116.813 324.701 116.712 325.276 116.712C326.085 116.712 326.721 116.889 327.183 117.244C327.648 117.599 327.978 118.068 328.174 118.651ZM330.215 125V116.818H331.472V125H330.215ZM330.854 115.455C330.609 115.455 330.398 115.371 330.22 115.204C330.046 115.037 329.959 114.837 329.959 114.602C329.959 114.368 330.046 114.167 330.22 114C330.398 113.833 330.609 113.75 330.854 113.75C331.099 113.75 331.309 113.833 331.483 114C331.66 114.167 331.749 114.368 331.749 114.602C331.749 114.837 331.66 115.037 331.483 115.204C331.309 115.371 331.099 115.455 330.854 115.455ZM337.098 125.17C336.331 125.17 335.671 124.989 335.117 124.627C334.563 124.265 334.137 123.766 333.839 123.13C333.54 122.495 333.391 121.768 333.391 120.952C333.391 120.121 333.544 119.387 333.849 118.752C334.158 118.113 334.588 117.614 335.138 117.255C335.692 116.893 336.339 116.712 337.077 116.712C337.652 116.712 338.171 116.818 338.633 117.031C339.094 117.244 339.472 117.543 339.767 117.926C340.062 118.31 340.245 118.757 340.316 119.268H339.059C338.963 118.896 338.75 118.565 338.419 118.278C338.093 117.987 337.652 117.841 337.098 117.841C336.608 117.841 336.179 117.969 335.809 118.224C335.444 118.477 335.158 118.833 334.952 119.295C334.749 119.753 334.648 120.291 334.648 120.909C334.648 121.541 334.748 122.092 334.946 122.56C335.149 123.029 335.433 123.393 335.799 123.652C336.168 123.912 336.601 124.041 337.098 124.041C337.425 124.041 337.722 123.984 337.988 123.871C338.254 123.757 338.48 123.594 338.665 123.381C338.849 123.168 338.981 122.912 339.059 122.614H340.316C340.245 123.097 340.069 123.532 339.788 123.919C339.511 124.302 339.144 124.608 338.686 124.835C338.231 125.059 337.702 125.17 337.098 125.17Z" fill="black"/>
<path d="M267.709 34.8182V35.8835H263.469V34.8182H267.709ZM264.705 32.858H265.962V40.6562C265.962 41.0114 266.013 41.2777 266.116 41.4553C266.223 41.6293 266.358 41.7464 266.521 41.8068C266.688 41.8636 266.864 41.892 267.048 41.892C267.187 41.892 267.3 41.8849 267.389 41.8707C267.478 41.853 267.549 41.8388 267.602 41.8281L267.858 42.9574C267.773 42.9893 267.654 43.0213 267.501 43.0533C267.348 43.0888 267.155 43.1065 266.92 43.1065C266.565 43.1065 266.217 43.0302 265.876 42.8775C265.539 42.7248 265.259 42.4922 265.035 42.1797C264.815 41.8672 264.705 41.473 264.705 40.9972V32.858ZM271.033 38.0781V43H269.776V32.0909H271.033V36.0966H271.139C271.331 35.674 271.619 35.3384 272.002 35.0898C272.389 34.8377 272.904 34.7116 273.547 34.7116C274.104 34.7116 274.593 34.8235 275.012 35.0472C275.431 35.2674 275.756 35.6065 275.987 36.0646C276.221 36.5192 276.338 37.098 276.338 37.8011V43H275.081V37.8864C275.081 37.2365 274.912 36.734 274.575 36.3789C274.241 36.0202 273.778 35.8409 273.185 35.8409C272.773 35.8409 272.403 35.9279 272.077 36.1019C271.754 36.2759 271.498 36.5298 271.31 36.8636C271.125 37.1974 271.033 37.6023 271.033 38.0781ZM278.638 43V34.8182H279.852V36.054H279.938C280.087 35.6491 280.357 35.3207 280.747 35.0685C281.138 34.8164 281.578 34.6903 282.068 34.6903C282.161 34.6903 282.276 34.6921 282.415 34.6957C282.553 34.6992 282.658 34.7045 282.729 34.7116V35.9901C282.686 35.9794 282.589 35.9634 282.436 35.9421C282.287 35.9173 282.129 35.9048 281.962 35.9048C281.564 35.9048 281.209 35.9883 280.896 36.1552C280.587 36.3185 280.342 36.5458 280.161 36.837C279.984 37.1246 279.895 37.4531 279.895 37.8224V43H278.638ZM284.219 43V34.8182H285.476V43H284.219ZM284.858 33.4545C284.613 33.4545 284.402 33.3711 284.224 33.2042C284.05 33.0373 283.963 32.8366 283.963 32.6023C283.963 32.3679 284.05 32.1673 284.224 32.0004C284.402 31.8335 284.613 31.75 284.858 31.75C285.103 31.75 285.313 31.8335 285.487 32.0004C285.664 32.1673 285.753 32.3679 285.753 32.6023C285.753 32.8366 285.664 33.0373 285.487 33.2042C285.313 33.3711 285.103 33.4545 284.858 33.4545ZM289.036 32.0909V43H287.778V32.0909H289.036ZM292.595 32.0909V43H291.338V32.0909H292.595ZM298.328 43.1705C297.54 43.1705 296.86 42.9964 296.288 42.6484C295.72 42.2969 295.281 41.8068 294.972 41.1783C294.667 40.5462 294.514 39.8111 294.514 38.973C294.514 38.1349 294.667 37.3963 294.972 36.7571C295.281 36.1143 295.711 35.6136 296.261 35.255C296.815 34.8928 297.462 34.7116 298.2 34.7116C298.626 34.7116 299.047 34.7827 299.463 34.9247C299.878 35.0668 300.256 35.2976 300.597 35.6172C300.938 35.9332 301.21 36.3523 301.412 36.8743C301.615 37.3963 301.716 38.0391 301.716 38.8026V39.3352H295.409V38.2486H300.437C300.437 37.7869 300.345 37.375 300.16 37.0128C299.979 36.6506 299.72 36.3647 299.383 36.1552C299.049 35.9457 298.655 35.8409 298.2 35.8409C297.699 35.8409 297.266 35.9652 296.9 36.2138C296.538 36.4588 296.259 36.7784 296.064 37.1726C295.869 37.5668 295.771 37.9893 295.771 38.4403V39.1648C295.771 39.7827 295.878 40.3065 296.091 40.7362C296.307 41.1623 296.608 41.4872 296.991 41.7109C297.375 41.9311 297.82 42.0412 298.328 42.0412C298.658 42.0412 298.957 41.995 299.223 41.9027C299.493 41.8068 299.725 41.6648 299.921 41.4766C300.116 41.2848 300.267 41.0469 300.373 40.7628L301.588 41.1037C301.46 41.5156 301.245 41.8778 300.943 42.1903C300.642 42.4993 300.269 42.7408 299.825 42.9148C299.381 43.0852 298.882 43.1705 298.328 43.1705ZM303.628 43V34.8182H304.843V36.054H304.928C305.077 35.6491 305.347 35.3207 305.737 35.0685C306.128 34.8164 306.568 34.6903 307.059 34.6903C307.151 34.6903 307.266 34.6921 307.405 34.6957C307.543 34.6992 307.648 34.7045 307.719 34.7116V35.9901C307.676 35.9794 307.579 35.9634 307.426 35.9421C307.277 35.9173 307.119 35.9048 306.952 35.9048C306.554 35.9048 306.199 35.9883 305.887 36.1552C305.578 36.3185 305.333 36.5458 305.152 36.837C304.974 37.1246 304.885 37.4531 304.885 37.8224V43H303.628Z" fill="black"/>
<path d="M232.036 227.354V219.172H233.25V220.408H233.336C233.485 220.003 233.755 219.674 234.145 219.422C234.536 219.17 234.976 219.044 235.466 219.044C235.559 219.044 235.674 219.046 235.812 219.049C235.951 219.053 236.056 219.058 236.127 219.065V220.344C236.084 220.333 235.986 220.317 235.834 220.296C235.685 220.271 235.527 220.259 235.36 220.259C234.962 220.259 234.607 220.342 234.294 220.509C233.985 220.672 233.74 220.9 233.559 221.191C233.382 221.478 233.293 221.807 233.293 222.176V227.354H232.036ZM240.692 227.524C239.953 227.524 239.305 227.348 238.747 226.997C238.193 226.645 237.76 226.153 237.448 225.521C237.139 224.889 236.984 224.151 236.984 223.305C236.984 222.453 237.139 221.709 237.448 221.074C237.76 220.438 238.193 219.944 238.747 219.593C239.305 219.241 239.953 219.065 240.692 219.065C241.43 219.065 242.077 219.241 242.631 219.593C243.188 219.944 243.621 220.438 243.93 221.074C244.243 221.709 244.399 222.453 244.399 223.305C244.399 224.151 244.243 224.889 243.93 225.521C243.621 226.153 243.188 226.645 242.631 226.997C242.077 227.348 241.43 227.524 240.692 227.524ZM240.692 226.395C241.253 226.395 241.714 226.251 242.077 225.963C242.439 225.676 242.707 225.298 242.881 224.829C243.055 224.36 243.142 223.852 243.142 223.305C243.142 222.759 243.055 222.249 242.881 221.777C242.707 221.304 242.439 220.923 242.077 220.631C241.714 220.34 241.253 220.195 240.692 220.195C240.131 220.195 239.669 220.34 239.307 220.631C238.945 220.923 238.676 221.304 238.502 221.777C238.328 222.249 238.241 222.759 238.241 223.305C238.241 223.852 238.328 224.36 238.502 224.829C238.676 225.298 238.945 225.676 239.307 225.963C239.669 226.251 240.131 226.395 240.692 226.395ZM246.318 227.354V219.172H247.533V220.45H247.639C247.81 220.014 248.085 219.674 248.465 219.433C248.845 219.188 249.301 219.065 249.834 219.065C250.373 219.065 250.823 219.188 251.181 219.433C251.544 219.674 251.826 220.014 252.028 220.45H252.114C252.323 220.028 252.637 219.692 253.056 219.444C253.475 219.191 253.978 219.065 254.564 219.065C255.295 219.065 255.894 219.294 256.359 219.753C256.824 220.207 257.057 220.916 257.057 221.878V227.354H255.8V221.878C255.8 221.274 255.634 220.843 255.304 220.584C254.974 220.324 254.585 220.195 254.138 220.195C253.562 220.195 253.117 220.369 252.801 220.717C252.485 221.061 252.327 221.498 252.327 222.027V227.354H251.048V221.75C251.048 221.285 250.897 220.91 250.595 220.626C250.294 220.338 249.905 220.195 249.429 220.195C249.102 220.195 248.797 220.282 248.513 220.456C248.232 220.63 248.005 220.871 247.831 221.18C247.66 221.486 247.575 221.839 247.575 222.24V227.354H246.318ZM261.763 227.546C261.244 227.546 260.774 227.448 260.351 227.253C259.929 227.054 259.593 226.768 259.345 226.395C259.096 226.019 258.972 225.564 258.972 225.031C258.972 224.563 259.064 224.183 259.249 223.891C259.433 223.597 259.68 223.366 259.989 223.199C260.298 223.032 260.639 222.908 261.012 222.826C261.388 222.741 261.766 222.673 262.146 222.624C262.644 222.56 263.047 222.512 263.356 222.48C263.668 222.444 263.895 222.386 264.037 222.304C264.183 222.222 264.256 222.08 264.256 221.878V221.835C264.256 221.31 264.112 220.901 263.824 220.61C263.54 220.319 263.109 220.173 262.53 220.173C261.93 220.173 261.459 220.305 261.118 220.568C260.777 220.83 260.538 221.111 260.399 221.409L259.206 220.983C259.419 220.486 259.703 220.099 260.058 219.822C260.417 219.541 260.808 219.346 261.23 219.236C261.656 219.122 262.075 219.065 262.487 219.065C262.75 219.065 263.052 219.097 263.393 219.161C263.737 219.222 264.069 219.348 264.389 219.539C264.712 219.731 264.98 220.021 265.193 220.408C265.406 220.795 265.513 221.313 265.513 221.963V227.354H264.256V226.246H264.192C264.107 226.423 263.965 226.613 263.766 226.816C263.567 227.018 263.302 227.19 262.972 227.332C262.642 227.474 262.239 227.546 261.763 227.546ZM261.955 226.416C262.452 226.416 262.871 226.319 263.212 226.123C263.556 225.928 263.815 225.676 263.989 225.367C264.167 225.058 264.256 224.733 264.256 224.392V223.242C264.202 223.305 264.085 223.364 263.904 223.417C263.727 223.467 263.521 223.511 263.286 223.55C263.055 223.586 262.83 223.618 262.61 223.646C262.393 223.671 262.217 223.693 262.082 223.71C261.756 223.753 261.45 223.822 261.166 223.918C260.886 224.01 260.658 224.151 260.484 224.339C260.314 224.524 260.229 224.776 260.229 225.095C260.229 225.532 260.39 225.862 260.713 226.086C261.04 226.306 261.454 226.416 261.955 226.416ZM269.064 222.432V227.354H267.807V219.172H269.022V220.45H269.128C269.32 220.035 269.611 219.701 270.002 219.449C270.393 219.193 270.897 219.065 271.515 219.065C272.069 219.065 272.553 219.179 272.969 219.406C273.384 219.63 273.708 219.971 273.938 220.429C274.169 220.884 274.285 221.459 274.285 222.155V227.354H273.027V222.24C273.027 221.597 272.861 221.097 272.527 220.738C272.193 220.376 271.735 220.195 271.152 220.195C270.751 220.195 270.393 220.282 270.076 220.456C269.764 220.63 269.517 220.884 269.336 221.217C269.155 221.551 269.064 221.956 269.064 222.432ZM279.906 227.524C279.139 227.524 278.478 227.343 277.924 226.981C277.37 226.619 276.944 226.12 276.646 225.484C276.347 224.848 276.198 224.122 276.198 223.305C276.198 222.474 276.351 221.741 276.656 221.106C276.965 220.466 277.395 219.967 277.945 219.609C278.499 219.247 279.146 219.065 279.884 219.065C280.46 219.065 280.978 219.172 281.44 219.385C281.901 219.598 282.28 219.896 282.574 220.28C282.869 220.663 283.052 221.111 283.123 221.622H281.866C281.77 221.249 281.557 220.919 281.227 220.631C280.9 220.34 280.46 220.195 279.906 220.195C279.416 220.195 278.986 220.323 278.617 220.578C278.251 220.83 277.965 221.187 277.759 221.649C277.557 222.107 277.455 222.645 277.455 223.263C277.455 223.895 277.555 224.445 277.754 224.914C277.956 225.383 278.24 225.747 278.606 226.006C278.975 226.265 279.408 226.395 279.906 226.395C280.232 226.395 280.529 226.338 280.795 226.224C281.061 226.111 281.287 225.948 281.472 225.734C281.656 225.521 281.788 225.266 281.866 224.967H283.123C283.052 225.45 282.876 225.885 282.596 226.272C282.319 226.656 281.951 226.961 281.493 227.189C281.038 227.412 280.509 227.524 279.906 227.524ZM288.391 227.524C287.603 227.524 286.923 227.35 286.351 227.002C285.783 226.651 285.344 226.161 285.035 225.532C284.73 224.9 284.577 224.165 284.577 223.327C284.577 222.489 284.73 221.75 285.035 221.111C285.344 220.468 285.774 219.967 286.324 219.609C286.878 219.247 287.525 219.065 288.263 219.065C288.689 219.065 289.11 219.136 289.526 219.278C289.941 219.421 290.319 219.651 290.66 219.971C291.001 220.287 291.273 220.706 291.475 221.228C291.678 221.75 291.779 222.393 291.779 223.156V223.689H285.472V222.602H290.5C290.5 222.141 290.408 221.729 290.223 221.367C290.042 221.004 289.783 220.718 289.446 220.509C289.112 220.299 288.718 220.195 288.263 220.195C287.762 220.195 287.329 220.319 286.963 220.568C286.601 220.813 286.322 221.132 286.127 221.526C285.932 221.921 285.834 222.343 285.834 222.794V223.519C285.834 224.136 285.941 224.66 286.154 225.09C286.37 225.516 286.67 225.841 287.054 226.065C287.438 226.285 287.883 226.395 288.391 226.395C288.721 226.395 289.02 226.349 289.286 226.256C289.556 226.161 289.788 226.019 289.984 225.83C290.179 225.639 290.33 225.401 290.436 225.117L291.651 225.457C291.523 225.869 291.308 226.232 291.006 226.544C290.705 226.853 290.332 227.095 289.888 227.269C289.444 227.439 288.945 227.524 288.391 227.524Z" fill="black"/>
<path d="M215.408 6.07812V11H214.151V0.0909088H215.408V4.09659H215.514C215.706 3.67401 215.994 3.33842 216.377 3.08984C216.764 2.83771 217.279 2.71165 217.922 2.71165C218.479 2.71165 218.968 2.82351 219.387 3.04723C219.806 3.2674 220.131 3.60653 220.362 4.06463C220.596 4.51918 220.713 5.09801 220.713 5.80114V11H219.456V5.88636C219.456 5.23651 219.287 4.73402 218.95 4.37891C218.616 4.02024 218.153 3.84091 217.56 3.84091C217.148 3.84091 216.778 3.92791 216.452 4.10192C216.129 4.27592 215.873 4.52983 215.685 4.86364C215.5 5.19744 215.408 5.60227 215.408 6.07812ZM226.337 11.1705C225.598 11.1705 224.95 10.9947 224.392 10.6431C223.839 10.2915 223.405 9.79972 223.093 9.16761C222.784 8.53551 222.629 7.79687 222.629 6.9517C222.629 6.09943 222.784 5.35547 223.093 4.71982C223.405 4.08416 223.839 3.59055 224.392 3.23899C224.95 2.88743 225.598 2.71165 226.337 2.71165C227.075 2.71165 227.722 2.88743 228.276 3.23899C228.833 3.59055 229.266 4.08416 229.575 4.71982C229.888 5.35547 230.044 6.09943 230.044 6.9517C230.044 7.79687 229.888 8.53551 229.575 9.16761C229.266 9.79972 228.833 10.2915 228.276 10.6431C227.722 10.9947 227.075 11.1705 226.337 11.1705ZM226.337 10.0412C226.898 10.0412 227.359 9.89737 227.722 9.60973C228.084 9.32209 228.352 8.94389 228.526 8.47514C228.7 8.00639 228.787 7.49858 228.787 6.9517C228.787 6.40483 228.7 5.89524 228.526 5.42294C228.352 4.95064 228.084 4.56889 227.722 4.2777C227.359 3.98651 226.898 3.84091 226.337 3.84091C225.776 3.84091 225.314 3.98651 224.952 4.2777C224.59 4.56889 224.321 4.95064 224.147 5.42294C223.973 5.89524 223.886 6.40483 223.886 6.9517C223.886 7.49858 223.973 8.00639 224.147 8.47514C224.321 8.94389 224.59 9.32209 224.952 9.60973C225.314 9.89737 225.776 10.0412 226.337 10.0412ZM231.963 11V2.81818H233.178V4.05398H233.263C233.412 3.64915 233.682 3.32067 234.072 3.06854C234.463 2.81641 234.903 2.69034 235.393 2.69034C235.486 2.69034 235.601 2.69212 235.74 2.69567C235.878 2.69922 235.983 2.70455 236.054 2.71165V3.99006C236.011 3.9794 235.914 3.96342 235.761 3.94212C235.612 3.91726 235.454 3.90483 235.287 3.90483C234.889 3.90483 234.534 3.98828 234.222 4.15518C233.913 4.31854 233.668 4.54581 233.487 4.837C233.309 5.12464 233.22 5.45312 233.22 5.82244V11H231.963ZM237.544 11V2.81818H238.759V4.05398H238.844C238.993 3.64915 239.263 3.32067 239.653 3.06854C240.044 2.81641 240.484 2.69034 240.975 2.69034C241.067 2.69034 241.182 2.69212 241.321 2.69567C241.459 2.69922 241.564 2.70455 241.635 2.71165V3.99006C241.592 3.9794 241.495 3.96342 241.342 3.94212C241.193 3.91726 241.035 3.90483 240.868 3.90483C240.47 3.90483 240.115 3.98828 239.803 4.15518C239.494 4.31854 239.249 4.54581 239.068 4.837C238.89 5.12464 238.801 5.45312 238.801 5.82244V11H237.544ZM246.2 11.1705C245.461 11.1705 244.813 10.9947 244.256 10.6431C243.702 10.2915 243.269 9.79972 242.956 9.16761C242.647 8.53551 242.493 7.79687 242.493 6.9517C242.493 6.09943 242.647 5.35547 242.956 4.71982C243.269 4.08416 243.702 3.59055 244.256 3.23899C244.813 2.88743 245.461 2.71165 246.2 2.71165C246.939 2.71165 247.585 2.88743 248.139 3.23899C248.696 3.59055 249.13 4.08416 249.439 4.71982C249.751 5.35547 249.907 6.09943 249.907 6.9517C249.907 7.79687 249.751 8.53551 249.439 9.16761C249.13 9.79972 248.696 10.2915 248.139 10.6431C247.585 10.9947 246.939 11.1705 246.2 11.1705ZM246.2 10.0412C246.761 10.0412 247.223 9.89737 247.585 9.60973C247.947 9.32209 248.215 8.94389 248.389 8.47514C248.563 8.00639 248.65 7.49858 248.65 6.9517C248.65 6.40483 248.563 5.89524 248.389 5.42294C248.215 4.95064 247.947 4.56889 247.585 4.2777C247.223 3.98651 246.761 3.84091 246.2 3.84091C245.639 3.84091 245.177 3.98651 244.815 4.2777C244.453 4.56889 244.185 4.95064 244.011 5.42294C243.837 5.89524 243.75 6.40483 243.75 6.9517C243.75 7.49858 243.837 8.00639 244.011 8.47514C244.185 8.94389 244.453 9.32209 244.815 9.60973C245.177 9.89737 245.639 10.0412 246.2 10.0412ZM251.826 11V2.81818H253.041V4.05398H253.126C253.275 3.64915 253.545 3.32067 253.936 3.06854C254.326 2.81641 254.767 2.69034 255.257 2.69034C255.349 2.69034 255.464 2.69212 255.603 2.69567C255.741 2.69922 255.846 2.70455 255.917 2.71165V3.99006C255.875 3.9794 255.777 3.96342 255.624 3.94212C255.475 3.91726 255.317 3.90483 255.15 3.90483C254.752 3.90483 254.397 3.98828 254.085 4.15518C253.776 4.31854 253.531 4.54581 253.35 4.837C253.172 5.12464 253.083 5.45312 253.083 5.82244V11H251.826Z" fill="black"/>
</g>
<defs>
<clipPath id="clip0_17_11">
<rect width="362" height="228.534" fill="white" transform="translate(0 0.126953)"/>
</clipPath>
</defs>
</svg>
