<svg width="34" height="31" viewBox="0 0 34 31" fill="none" xmlns="http://www.w3.org/2000/svg">
<path fill-rule="evenodd" clip-rule="evenodd" d="M11.278 19.4886H3.78712C3.17894 19.4886 2.5783 19.3509 2.04 19.0891C1.49597 18.8251 1.03103 18.4437 0.68575 17.9783C0.335611 17.5084 0.111769 16.97 0.0323571 16.4066C-0.0470544 15.8432 0.0201978 15.2706 0.228666 14.7353L4.68618 2.33361C5.23204 0.929999 5.59279 0 8.24652 0C12.1601 0 16.3229 1.16767 19.8738 2.16311C20.7672 2.41283 21.621 2.65222 22.4237 2.85888H22.639V19.8434C19.5077 22.6607 16.8144 25.8558 14.6344 29.3397C14.2623 29.9873 13.6598 30.4936 12.9326 30.7692C12.2062 31.0454 11.3952 31.0747 10.6472 30.8518C9.89445 30.6235 9.25302 30.1623 8.83393 29.5481C8.40925 28.9259 8.23002 28.1902 8.32585 27.4625L11.2761 19.4886H11.278ZM31.775 18.9444H26.4449V5.16666C26.4449 4.25314 26.8429 3.37703 27.5513 2.73107C28.2597 2.08511 29.2206 1.72222 30.2224 1.72222C31.2243 1.72222 32.1852 2.08511 32.8936 2.73107C33.602 3.37703 34 4.25314 34 5.16666V16.9174C34 18.0368 33.0027 18.9444 31.775 18.9444Z" fill="#263F00"/>
</svg>
