<svg width="34" height="31" viewBox="0 0 34 31" fill="none" xmlns="http://www.w3.org/2000/svg">
<path fill-rule="evenodd" clip-rule="evenodd" d="M22.722 11.5114H30.2129C30.8211 11.5114 31.4217 11.6491 31.96 11.9109C32.504 12.1749 32.969 12.5563 33.3142 13.0217C33.6644 13.4916 33.8882 14.03 33.9676 14.5934C34.0471 15.1568 33.9798 15.7294 33.7713 16.2647L29.3138 28.6664C28.768 30.07 28.4072 31 25.7535 31C21.8399 31 17.6771 29.8323 14.1262 28.8369C13.2328 28.5872 12.379 28.3478 11.5763 28.1411H11.361L11.361 11.1566C14.4923 8.33931 17.1856 5.14417 19.3656 1.66026C19.7377 1.01271 20.3402 0.506376 21.0674 0.230822C21.7938 -0.0453548 22.6048 -0.074688 23.3528 0.148155C24.1055 0.376532 24.747 0.837723 25.1661 1.45188C25.5908 2.07411 25.77 2.80982 25.6741 3.53748L22.7239 11.5114H22.722ZM2.22498 12.0556H7.55511L7.55511 25.8333C7.55511 26.7469 7.15712 27.623 6.44869 28.2689C5.74026 28.9149 4.77942 29.2778 3.77755 29.2778C2.77568 29.2778 1.81485 28.9149 1.10642 28.2689C0.397991 27.623 0 26.7469 0 25.8333V14.0826C0 12.9632 0.997272 12.0556 2.22498 12.0556Z" fill="#263F00"/>
</svg>
